<?xml version="1.0" encoding="utf-8"?><!-- Uploaded to: SVG Repo, www.svgrepo.com, Generator: SVG Repo Mixer Tools -->
<svg fill="#000000" width="800px" height="800px" viewBox="0 0 24 24" id="list-square-2" data-name="Flat Color" xmlns="http://www.w3.org/2000/svg" class="icon flat-color"><rect id="primary" x="2" y="2" width="20" height="20" rx="2" style="fill: rgb(0, 0, 0);"></rect><path id="secondary" d="M5,16a1,1,0,0,1,1-1h7a1,1,0,0,1,0,2H6A1,1,0,0,1,5,16Zm0-4a1,1,0,0,1,1-1h7a1,1,0,0,1,0,2H6A1,1,0,0,1,5,12ZM5,8A1,1,0,0,1,6,7h7a1,1,0,0,1,0,2H6A1,1,0,0,1,5,8ZM16,8a1.5,1.5,0,1,0,1.5-1.5A1.5,1.5,0,0,0,16,8Zm0,4a1.5,1.5,0,1,0,1.5-1.5A1.5,1.5,0,0,0,16,12Zm0,4a1.5,1.5,0,1,0,1.5-1.5A1.5,1.5,0,0,0,16,16Z" style="fill: rgb(44, 169, 188);"></path></svg>